HIERARCHY
ROOT Hips
{
	OFFSET 0.00 86.18 0.00
	CHANNELS 6 Xposition Yposition Zposition Yrotation Xrotation Zrotation
	JOINT RightUpLeg
	{
		OFFSET -9.25 0.00 0.00
		CHANNELS 6 Xposition Yposition Zposition Yrotation Xrotation Zrotation
		JOINT RightLeg
		{
			OFFSET 0.00 -42.00 0.00
			CHANNELS 6 Xposition Yposition Zposition Yrotation Xrotation Zrotation
			JOINT RightFoot
			{
				OFFSET 0.00 -42.00 0.00
				CHANNELS 6 Xposition Yposition Zposition Yrotation Xrotation Zrotation
				End Site
				{
					OFFSET 0 -1.14 11.36
				}
			}
		}
	}
	JOINT LeftUpLeg
	{
		OFFSET 9.25 0.00 0.00
		CHANNELS 6 Xposition Yposition Zposition Yrotation Xrotation Zrotation
		JOINT LeftLeg
		{
			OFFSET 0.00 -42.00 0.00
			CHANNELS 6 Xposition Yposition Zposition Yrotation Xrotation Zrotation
			JOINT LeftFoot
			{
				OFFSET 0.00 -42.00 0.00
				CHANNELS 6 Xposition Yposition Zposition Yrotation Xrotation Zrotation
				End Site
				{
					OFFSET 0 -1.14 11.36
				}
			}
		}
	}
	JOINT Spine
	{
		OFFSET 0.00 10.46 0.00
		CHANNELS 6 Xposition Yposition Zposition Yrotation Xrotation Zrotation
		JOINT Spine1
		{
			OFFSET 0.00 9.75 0.00
			CHANNELS 6 Xposition Yposition Zposition Yrotation Xrotation Zrotation
			JOINT Spine2
			{
				OFFSET 0.00 10.15 0.00
				CHANNELS 6 Xposition Yposition Zposition Yrotation Xrotation Zrotation
				JOINT Spine3
				{
					OFFSET 0.00 9.75 0.00
					CHANNELS 6 Xposition Yposition Zposition Yrotation Xrotation Zrotation
			 		JOINT Neck
					{
						OFFSET 0.00 10.42 0.00
						CHANNELS 6 Xposition Yposition Zposition Yrotation Xrotation Zrotation
						JOINT Head
						{
							OFFSET 0.00 9.50 0.00
							CHANNELS 6 Xposition Yposition Zposition Yrotation Xrotation Zrotation
							End Site
							{
								OFFSET 0 16.00 0
							}
						}    
					} 
					JOINT RightShoulder
	 					{
						OFFSET -3.20 6.94 0.00
						CHANNELS 6 Xposition Yposition Zposition Yrotation Xrotation Zrotation
						JOINT RightArm
						{
							OFFSET -16.00 0.00 0.00
							CHANNELS 6 Xposition Yposition Zposition Yrotation Xrotation Zrotation
							JOINT RightForeArm
							{
								OFFSET -26.50 0.00 0.00
								CHANNELS 6 Xposition Yposition Zposition Yrotation Xrotation Zrotation
								JOINT RightHand
								{
									OFFSET -26.00 0.00 0.00
									CHANNELS 6 Xposition Yposition Zposition Yrotation Xrotation Zrotation
									End Site
									{
										OFFSET -17.50 0 0
									}
								}
							}
						}	
					}
					JOINT LeftShoulder
					{
						OFFSET 3.20 6.94 0.00
						CHANNELS 6 Xposition Yposition Zposition Yrotation Xrotation Zrotation
						JOINT LeftArm
						{
							OFFSET 16.00 0.00 0.00
							CHANNELS 6 Xposition Yposition Zposition Yrotation Xrotation Zrotation
							JOINT LeftForeArm
							{
								OFFSET 26.50 0.00 0.00
								CHANNELS 6 Xposition Yposition Zposition Yrotation Xrotation Zrotation
								JOINT LeftHand
								{
									OFFSET 26.00 0.00 0.00
									CHANNELS 6 Xposition Yposition Zposition Yrotation Xrotation Zrotation
									End Site
									{
										OFFSET 17.50 0 0
									}
								}
							}
						}
					}     			
				}
			}
		} 
	} 
}
MOTION
Frames: 11
Frame Time: 0.010
0.02 92.98 0.03 -89.85 0.92 -0.51 -9.23 -0.01 -0.05 -33.76 1.41 -6.16 0.07 -42.00 0.05 16.16 -1.06 1.15 -0.01 -42.34 0.04 -2.70 -1.18 0.18 9.24 0.00 0.03 16.69 -2.32 1.73 0.00 -42.00 -0.03 -13.84 4.50 3.48 -0.05 -41.67 -0.06 -1.78 -1.20 -0.26 -0.02 10.46 0.06 -0.09 1.15 1.12 -0.02 9.75 0.05 -0.02 0.29 0.28 -0.04 10.15 0.03 -0.04 0.48 0.47 -0.04 9.75 0.03 0.30 -0.65 -0.13 -0.02 10.41 0.07 0.30 -0.64 -0.13 0.12 9.48 -0.03 5.93 -10.83 -2.83 -3.22 6.92 -0.10 0.90 3.26 5.14 -15.89 -0.05 -0.14 3.24 -0.12 76.95 -26.49 -0.16 0.03 8.79 -0.53 -0.02 -26.01 -0.08 0.09 3.34 8.79 -12.25 3.18 6.98 0.09 -1.36 1.05 -5.49 16.09 0.06 0.08 -9.53 9.27 -77.98 26.52 0.15 -0.10 -11.73 -4.63 -1.90 26.00 0.10 -0.14 -6.74 11.97 9.05 
0.02 92.98 0.02 -89.85 0.92 -0.51 -9.23 -0.01 -0.04 -33.76 1.41 -6.16 0.07 -42.00 0.04 16.16 -1.06 1.15 -0.04 -42.34 0.03 -2.70 -1.18 0.18 9.25 0.00 0.02 16.69 -2.32 1.73 0.01 -42.00 -0.03 -13.84 4.50 3.48 -0.08 -41.67 -0.08 -1.78 -1.20 -0.26 -0.02 10.46 0.07 -0.09 1.15 1.12 -0.02 9.75 0.05 -0.02 0.29 0.28 -0.03 10.15 0.03 -0.04 0.48 0.47 -0.03 9.75 0.03 0.30 -0.65 -0.13 -0.01 10.41 0.07 0.30 -0.64 -0.13 0.10 9.48 -0.01 5.93 -10.83 -2.83 -3.21 6.93 -0.09 0.90 3.26 5.14 -15.91 -0.04 -0.12 3.24 -0.12 76.95 -26.49 -0.13 0.02 8.79 -0.53 -0.02 -26.01 -0.07 0.07 3.34 8.79 -12.25 3.19 6.98 0.08 -1.36 1.05 -5.49 16.08 0.05 0.07 -9.53 9.27 -77.98 26.52 0.14 -0.11 -11.73 -4.63 -1.90 26.01 0.08 -0.14 -6.74 11.97 9.05 
0.03 92.98 0.01 -89.85 0.95 -0.51 -9.23 -0.01 -0.03 -33.74 1.42 -6.13 0.07 -42.00 0.04 16.12 -1.08 1.14 -0.07 -42.35 0.02 -2.70 -1.18 0.18 9.25 0.00 0.01 16.68 -2.36 1.73 0.01 -42.00 -0.02 -13.84 4.50 3.48 -0.10 -41.67 -0.08 -1.78 -1.20 -0.26 -0.02 10.46 0.06 -0.09 1.12 1.12 -0.02 9.75 0.05 -0.02 0.28 0.28 -0.03 10.15 0.02 -0.03 0.47 0.47 -0.03 9.75 0.03 0.30 -0.64 -0.13 -0.01 10.41 0.08 0.30 -0.64 -0.13 0.08 9.48 0.01 5.91 -10.82 -2.82 -3.21 6.93 -0.08 0.88 3.27 5.14 -15.92 -0.03 -0.10 3.24 -0.12 76.95 -26.49 -0.11 0.02 8.79 -0.53 -0.02 -26.00 -0.06 0.05 3.34 8.79 -12.25 3.19 6.97 0.07 -1.38 1.06 -5.49 16.07 0.04 0.06 -9.53 9.27 -77.98 26.52 0.12 -0.11 -11.73 -4.63 -1.90 26.01 0.07 -0.14 -6.74 11.97 9.05 
0.02 92.98 0.02 -89.85 0.95 -0.51 -9.22 -0.01 -0.03 -33.74 1.42 -6.13 0.07 -42.00 0.04 16.12 -1.08 1.14 -0.09 -42.35 0.02 -2.70 -1.18 0.18 9.25 0.00 0.01 16.68 -2.36 1.73 0.02 -42.00 -0.02 -13.84 4.50 3.48 -0.10 -41.66 -0.08 -1.86 -1.16 -0.22 -0.01 10.46 0.07 -0.58 1.12 1.28 0.01 9.75 0.05 -0.14 0.28 0.32 0.02 10.15 0.03 -0.24 0.47 0.54 0.00 9.75 0.03 -0.48 -0.61 -0.24 -0.02 10.41 0.08 -0.48 -0.62 -0.24 -0.46 9.47 0.20 -7.89 -12.89 -3.53 -3.20 6.94 0.05 1.55 3.33 5.05 -16.02 0.01 0.18 2.22 0.22 77.35 -26.42 -0.03 0.66 7.29 0.63 -0.32 -25.90 0.15 0.97 2.71 9.78 -10.52 3.20 6.92 -0.08 -1.02 1.10 -5.28 16.00 -0.01 -0.19 -9.26 8.88 -78.08 26.52 -0.06 -0.22 -11.61 -5.00 -1.70 26.02 -0.10 -0.23 -6.69 11.91 9.22 
-0.00 92.98 0.03 -89.85 0.95 -0.51 -9.22 -0.01 -0.03 -33.74 1.42 -6.13 0.07 -42.00 0.03 16.12 -1.08 1.14 -0.11 -42.35 0.01 -2.70 -1.18 0.18 9.25 0.00 0.00 16.68 -2.36 1.73 0.02 -42.00 -0.02 -13.84 4.50 3.48 -0.11 -41.66 -0.09 -1.87 -1.16 -0.22 -0.01 10.46 0.07 -0.59 1.13 1.30 0.01 9.75 0.05 -0.15 0.28 0.33 0.02 10.15 0.03 -0.24 0.48 0.54 0.01 9.75 0.03 -0.41 -0.63 -0.23 -0.02 10.41 0.06 -0.41 -0.64 -0.23 -0.42 9.48 0.16 -6.64 -12.97 -3.46 -3.20 6.94 0.05 1.47 3.33 5.02 -16.02 0.01 0.17 2.24 0.25 77.36 -26.43 -0.02 0.60 7.45 0.56 -0.34 -25.92 0.12 0.89 2.75 9.70 -10.62 3.20 6.93 -0.08 -1.10 1.12 -5.33 16.00 -0.01 -0.18 -9.28 8.90 -78.06 26.52 -0.06 -0.20 -11.60 -4.99 -1.72 26.02 -0.09 -0.21 -6.69 11.93 9.19 
-0.02 92.99 0.04 -90.54 0.40 -0.53 -9.23 -0.01 0.08 -33.44 1.86 -6.41 0.09 -42.00 0.05 16.35 -1.08 1.05 -0.09 -42.34 0.00 -2.57 -1.13 0.20 9.27 0.00 -0.04 16.88 -1.61 1.92 0.00 -42.00 0.09 -13.65 4.42 3.50 -0.12 -41.66 -0.06 -1.56 -1.27 -0.23 -0.00 10.46 0.18 -0.20 1.48 1.31 0.01 9.75 0.09 -0.05 0.37 0.33 0.01 10.15 0.04 -0.07 0.62 0.55 0.01 9.75 0.03 -0.34 -0.66 -0.21 -0.03 10.41 0.05 -0.34 -0.66 -0.21 -0.36 9.48 0.14 -5.38 -13.11 -3.34 -3.20 6.94 0.04 1.39 3.34 5.01 -16.02 0.01 0.15 2.26 0.23 77.35 -26.44 -0.02 0.55 7.57 0.48 -0.30 -25.93 0.10 0.80 2.80 9.60 -10.77 3.20 6.93 -0.08 -1.15 1.13 -5.35 16.00 -0.01 -0.17 -9.30 8.92 -78.05 26.52 -0.05 -0.18 -11.59 -4.97 -1.73 26.02 -0.08 -0.19 -6.69 11.95 9.12 
-0.04 92.98 0.05 -90.56 0.46 -0.52 -9.23 -0.01 0.09 -33.43 1.81 -6.39 0.09 -42.00 0.05 16.37 -1.08 1.06 -0.11 -42.35 -0.01 -2.56 -1.15 0.20 9.27 0.00 -0.04 16.92 -1.66 1.89 0.00 -42.00 0.08 -13.65 4.41 3.51 -0.13 -41.66 -0.08 -1.56 -1.26 -0.23 -0.00 10.46 0.17 -0.20 1.47 1.32 0.01 9.75 0.08 -0.05 0.37 0.33 0.01 10.15 0.03 -0.08 0.62 0.55 0.01 9.75 0.03 -0.28 -0.67 -0.20 -0.02 10.41 0.04 -0.28 -0.68 -0.20 -0.31 9.49 0.12 -4.26 -13.23 -3.28 -3.20 6.94 0.04 1.33 3.35 4.99 -16.01 0.01 0.14 2.29 0.18 77.33 -26.44 -0.02 0.50 7.68 0.38 -0.26 -25.94 0.08 0.73 2.85 9.50 -10.92 3.20 6.93 -0.07 -1.17 1.13 -5.36 16.00 -0.01 -0.16 -9.30 8.94 -78.05 26.52 -0.06 -0.17 -11.59 -4.92 -1.72 26.01 -0.08 -0.17 -6.68 11.97 9.05 
-0.05 92.99 0.05 -90.56 0.51 -0.50 -9.24 -0.01 0.09 -33.47 1.74 -6.38 0.09 -42.00 0.05 16.40 -1.08 1.07 -0.11 -42.35 -0.04 -2.55 -1.14 0.19 9.27 0.00 -0.05 16.89 -1.72 1.85 0.01 -42.00 0.07 -13.62 4.42 3.51 -0.12 -41.67 -0.09 -1.57 -1.26 -0.23 -0.00 10.46 0.16 -0.21 1.46 1.32 0.02 9.75 0.08 -0.05 0.37 0.33 0.01 10.15 0.03 -0.08 0.61 0.55 0.01 9.75 0.03 -0.22 -0.69 -0.20 -0.01 10.41 0.03 -0.22 -0.69 -0.20 -0.27 9.49 0.10 -3.27 -13.28 -3.32 -3.20 6.94 0.04 1.27 3.37 4.99 -16.00 0.01 0.12 2.37 0.12 77.31 -26.45 -0.02 0.45 7.78 0.23 -0.22 -25.95 0.07 0.67 2.90 9.40 -11.08 3.20 6.93 -0.06 -1.19 1.13 -5.37 16.00 -0.01 -0.14 -9.30 8.98 -78.05 26.52 -0.05 -0.14 -11.60 -4.92 -1.72 26.01 -0.07 -0.15 -6.67 11.95 9.03 
-0.06 92.98 0.05 -90.56 0.55 -0.49 -9.24 -0.01 0.09 -33.50 1.69 -6.37 0.08 -42.00 0.05 16.44 -1.08 1.07 -0.12 -42.35 -0.07 -2.55 -1.12 0.19 9.27 0.00 -0.04 16.92 -1.73 1.82 0.01 -42.00 0.07 -13.64 4.41 3.51 -0.12 -41.67 -0.10 -1.57 -1.27 -0.23 0.00 10.46 0.15 -0.21 1.46 1.33 0.02 9.75 0.07 -0.05 0.37 0.33 0.01 10.15 0.03 -0.08 0.61 0.55 0.01 9.75 0.02 -0.17 -0.70 -0.20 -0.00 10.41 0.02 -0.17 -0.71 -0.20 -0.23 9.49 0.09 -2.30 -13.32 -3.37 -3.20 6.94 0.04 1.20 3.38 4.98 -16.00 0.01 0.11 2.47 0.08 77.31 -26.45 -0.02 0.41 7.88 0.07 -0.21 -25.95 0.07 0.61 2.95 9.31 -11.21 3.20 6.93 -0.06 -1.21 1.15 -5.38 16.00 -0.01 -0.12 -9.30 9.00 -78.06 26.51 -0.04 -0.12 -11.60 -4.90 -1.74 26.01 -0.07 -0.13 -6.67 11.94 9.03 
-0.06 92.99 0.05 -90.57 0.59 -0.47 -9.24 -0.01 0.09 -33.53 1.61 -6.35 0.08 -42.00 0.05 16.49 -1.05 1.07 -0.12 -42.34 -0.08 -2.56 -1.13 0.18 9.27 -0.00 -0.05 16.90 -1.81 1.79 0.01 -42.00 0.05 -13.60 4.45 3.51 -0.12 -41.67 -0.11 -1.60 -1.27 -0.23 0.00 10.46 0.14 -0.21 1.44 1.32 0.02 9.75 0.07 -0.05 0.36 0.33 0.01 10.15 0.02 -0.08 0.60 0.55 0.01 9.75 0.02 -0.12 -0.71 -0.20 0.01 10.41 0.02 -0.12 -0.72 -0.20 -0.20 9.49 0.09 -1.38 -13.30 -3.43 -3.20 6.94 0.03 1.17 3.41 5.00 -16.00 0.01 0.10 2.57 0.04 77.31 -26.46 -0.01 0.37 7.98 -0.13 -0.24 -25.96 0.06 0.55 3.02 9.25 -11.33 3.20 6.93 -0.05 -1.23 1.17 -5.37 16.00 -0.01 -0.10 -9.30 9.01 -78.07 26.51 -0.04 -0.11 -11.61 -4.90 -1.75 26.01 -0.06 -0.12 -6.65 11.87 9.08 
-0.07 92.99 0.05 -90.57 0.63 -0.46 -9.24 -0.00 0.08 -33.56 1.57 -6.33 0.08 -42.00 0.05 16.51 -1.04 1.06 -0.11 -42.34 -0.08 -2.57 -1.13 0.18 9.26 -0.00 -0.04 16.96 -1.83 1.78 0.01 -42.00 0.05 -13.64 4.41 3.50 -0.11 -41.67 -0.12 -1.62 -1.25 -0.24 0.01 10.46 0.13 -0.21 1.44 1.31 0.02 9.75 0.06 -0.05 0.36 0.33 0.01 10.15 0.02 -0.08 0.60 0.55 0.01 9.75 0.02 -0.07 -0.72 -0.19 0.01 10.40 0.02 -0.07 -0.72 -0.19 -0.17 9.49 0.09 -0.50 -13.28 -3.48 -3.20 6.95 0.02 1.13 3.41 5.02 -16.00 0.01 0.09 2.66 -0.01 77.31 -26.46 -0.01 0.34 8.07 -0.30 -0.25 -25.96 0.05 0.50 3.07 9.18 -11.46 3.20 6.93 -0.04 -1.27 1.20 -5.37 16.00 -0.01 -0.09 -9.28 8.98 -78.07 26.51 -0.03 -0.10 -11.60 -4.91 -1.77 26.01 -0.05 -0.11 -6.66 11.82 9.13 
